<?xml version="1.0" encoding="UTF-8"?>
<svg id="Layer_1" data-name="Layer 1" xmlns="http://www.w3.org/2000/svg" viewBox="0 0 951 761">
  <defs>
    <style>
      .cls-1 {
        fill: #e48833;
      }

      .cls-1, .cls-2, .cls-3, .cls-4, .cls-5, .cls-6, .cls-7, .cls-8, .cls-9, .cls-10, .cls-11, .cls-12, .cls-13, .cls-14, .cls-15, .cls-16, .cls-17, .cls-18, .cls-19, .cls-20, .cls-21, .cls-22, .cls-23, .cls-24, .cls-25, .cls-26, .cls-27, .cls-28 {
        stroke-width: 0px;
      }

      .cls-2 {
        fill: #3e343a;
      }

      .cls-3 {
        fill: #fbc882;
      }

      .cls-29 {
        fill: none;
        stroke: #000;
        stroke-miterlimit: 10;
      }

      .cls-4 {
        fill: #1f2126;
      }

      .cls-5 {
        fill: #f49b45;
      }

      .cls-6 {
        fill: #4087b2;
      }

      .cls-7 {
        fill: #48525a;
      }

      .cls-8 {
        fill: #969797;
      }

      .cls-9 {
        fill: #80858d;
      }

      .cls-11 {
        fill: #e4ecef;
      }

      .cls-12 {
        fill: #636c74;
      }

      .cls-13 {
        fill: #141414;
      }

      .cls-14 {
        fill: #b66423;
      }

      .cls-15 {
        fill: #e4e9ea;
      }

      .cls-16 {
        fill: #3d4047;
      }

      .cls-17 {
        fill: #feb16d;
      }

      .cls-18 {
        fill: #ff9700;
      }

      .cls-19 {
        fill: #e4e77f;
      }

      .cls-20 {
        fill: #353120;
      }

      .cls-21 {
        fill: #549ea3;
      }

      .cls-22 {
        fill: #e3e4e5;
      }

      .cls-23 {
        fill: #703f16;
      }

      .cls-24 {
        fill: #cfdd88;
      }

      .cls-25 {
        fill: #1e1e1e;
      }

      .cls-26 {
        fill: #fdfdfd;
      }

      .cls-27 {
        fill: #95470b;
      }

      .cls-28 {
        fill: #f2f2f2;
      }
    </style>
  </defs>
  <g>
    <g>
      <path class="cls-24" d="M639.14,369.9c2.3,4.66,4.94,8.85,6.77,13.8,11.73,31.77,12.53,70.67,3.12,103.1-.86,2.97-9.33,25.59-10.41,27.6-.29.54-.91.92-1.56.78,2.64-8.38,14.38-48.94,2.34-52.07-7.97-2.07-22.52,15.29-34.89,11.46-6.04-1.87-15.63-20.04-17.96-26.29.31-8.38,1.09-16.58,1.04-24.99-.08-13.42-7.08-16.58,8.85-32.8-1.6-5.27-4.13-11.79-1.56-17.18.36-.77,10.95-11.87,11.72-12.24,5.51-2.68,8.44,1.65,12.5-7.29,8.68,8.59-5.9,6.16,11.46,19.79l.52-8.33,8.07,4.69Z"/>
      <path class="cls-24" d="M560,287.11c3.15,2.03,21.24,15.03,20.83,16.92-.32,1.45-4.49,2.64-3.91,3.38,10.44,2.66,12.79,6.62,12.76-1.04.18.14,1.11-.16,1.3,0,11.19,8.88,21.74,20.36,29.94,32.02.21.3-.21,2.04,0,2.34-2.86-2.3-.81,6.6,0,8.59-.7,1.78-4.86-7.25-9.63-9.11-8.39-3.27,3.56,2.92,5.99,8.59,4.91,11.47-8.25-7.16-9.11-7.55-5.45-2.47-7.98,3.92-7.55,10.15.05.73,4.67,8.99-2.86,12.76-13.5,6.75-13.29-13.6-17.96-21.09l7.03-1.82c-1.52-14.75-17.65-4.36-8.07-17.44-11.77,4.7-6.82-.57-16.92-12.24-2.85-.86,8.49,17.06-1.56,11.98-4.17-2.11-5.65-12.51-6.51-13.8-.89-1.33-7.55-4.36-7.81-5.21-.26-.83.66-4.24,1.82-4.43,1.07-.17,16.57,9.48,18.74,10.93,2.02,1.35,12.2,10.27,13.02,10.41,1.32.22,2.86-2.16,2.86-2.34.03-1.85-20.78-20.95-24.47-25.51-2.33-2.88-8.07-10.07-6.25-11.19,3.02,1.53,5.47,2.85,8.33,4.69Z"/>
      <path class="cls-6" d="M589.68,306.37c.03,7.66-2.32,3.7-12.76,1.04-.58-.75,3.59-1.94,3.91-3.38.41-1.89-17.68-14.9-20.83-16.92,10.95,4.75,20.37,11.98,29.68,19.27Z"/>
      <g>
        <path class="cls-6" d="M551.67,282.42c-1.82,1.12,3.91,8.31,6.25,11.19,3.69,4.56,24.5,23.66,24.47,25.51,0,.18-1.55,2.57-2.86,2.34-.82-.14-10.99-9.06-13.02-10.41-2.18-1.45-17.67-11.1-18.74-10.93-1.16.18-2.08,3.6-1.82,4.43.26.85,6.92,3.87,7.81,5.21.86,1.29,2.34,11.69,6.51,13.8,10.05,5.08-1.29-12.84,1.56-11.98,10.1,11.66,5.15,16.94,16.92,12.24-9.58,13.09,6.55,2.69,8.07,17.44l-7.03,1.82c4.67,7.49,4.46,27.84,17.96,21.09,7.53-3.77,2.91-12.03,2.86-12.76-.43-6.23,2.1-12.62,7.55-10.15.86.39,14.02,19.02,9.11,7.55-2.43-5.67-14.37-11.86-5.99-8.59,4.78,1.86,8.94,10.89,9.63,9.11-.81-1.99-2.86-10.89,0-8.59,9.03,13,10.48,13.51,18.22,29.16l-8.07-4.69-.52,8.33c-17.36-13.62-2.77-11.2-11.46-19.79-4.06,8.94-6.99,4.61-12.5,7.29-.76.37-11.35,11.47-11.72,12.24-2.56,5.39-.04,11.91,1.56,17.18-15.93,16.22-8.94,19.39-8.85,32.8.05,8.42-.74,16.61-1.04,24.99,2.33,6.26,11.92,24.42,17.96,26.29,12.36,3.83,26.92-13.53,34.89-11.46,12.04,3.13.3,43.69-2.34,52.07-.14.43-.14,2.55-1.04,4.95-48.06,93.76-168.87,123.89-255.4,62.74-98.52-69.62-98.81-224.34,11.19-291.07l7.29.78c-11.3,11.39-35.83,37.47-41.13,51.03-12.1,30.94,3.34,47.35,4.17,54.67.6,5.3-4.06,16.61,3.91,23.17,1.65,1.36,25.88,13.56,36.97,21.35,8.06,5.66,15.31,12.5,22.91,18.74,31.31.49,2.71,17.39,9.63,46.08,6.48,26.85,29.78,21.65,32.28,52.07,2.53,30.65-15.57,55.19,17.96,54.41,1.16-8.67,5.31-10.09,9.37-16.66,16.7-2.45,34.79-29.32,50.25-41.39,2.88-5.54,21.84-38.86,22.39-41.13,4.66-19.32-26.9-20.88-34.11-25.25-11.72-9.62-11.38-21.74-29.16-20.31-6.52-4.73-10.76-12.28-18.22-15.62-15.3-.27-38.97-13.76-39.57,10.41-7.12-6.61-8.01-7.66-18.22-8.33-5.94-13.23-.93-21.61-19.01-25.25,2.07-5.62,14.33-15.11,9.63-18.48-5.98-4.3-22.75,13.44-29.68,9.37-5.97-3.5-7.94-23.8-3.91-34.11,7.11-18.16,22.94-4.17,43.48-6.51,5.18,5.87,9.46,26.47,11.19,17.96.64-3.14-2.85-12.71-3.64-16.66l29.94-36.19c3.63-1.26,19.01-8.24,17.96-12.24-1.25-4.78-19.12,6.81-9.11-1.3,1.73-1.4,7.31-4.65,9.37-4.17,2.88.68,14.14,20.91,16.4,14.84.97-2.61-7.65-25.99-9.89-28.64-3.11-3.68-5.05.74-9.63-12.76q-4.17,3.12-8.33,6.25c.5-15.18-19.28-11.8-11.72,8.07-3.88.13-6.49,4.77-9.11,7.55-5.24-12.96-16.55-10.83-15.88-16.4,1.24-10.32,21.15-7.94,24.73-10.15,5.52-3.41.6-12.08-8.85-7.29l2.08-5.73c-14.95,10.32-14.15,2.63-19.27.52-4.06-1.67-13.63-2.37-16.92-6.25,40.93-15.25,93.89-15.82,133.3,4.17Z"/>
        <g>
          <path class="cls-24" d="M488.92,273.57c13.24-1.26,23.8,4.06,34.11,11.72-6.42,8.63-6.22,12.53-9.11,22.65-2.08-1.28-16.21-10.22-16.4-11.19-.13-.67,2.45-4.84,2.08-5.73-.14-.34-5.38-2.46-6.51-3.38-5.04-4.15-1.67-8.41-15.36-10.15,1.52-1.66,9.44-3.74,11.19-3.91Z"/>
          <path class="cls-24" d="M468.62,275.65c8.69-1.06,8.88.51.78,2.86,11.01,4.69,10.59,11.12,11.19,11.72,1.62,1.6,7.23-1.04,3.91,5.47-4.13,8.08-14.49,4.27-17.7-2.6-2.87-6.13,6.25.48,6.25-5.21,0-.96-4.31-4.45-4.95-5.99.5,11.29-16.1,5.02-4.43-1.82-11.91,1.03,1.11-3.96,4.95-4.43Z"/>
          <path class="cls-24" d="M450.39,278.26c.54,0,1.09-.16,1.3.26-4.12,3.48-2.25,11.34-9.63,9.63-7.05-1.63-2.04-9.95,8.33-9.89Z"/>
          <path class="cls-24" d="M525.89,291.27c4.21-1.14,13.16,4.36,7.29,6.25-6.03,1.94-12.58-4.81-7.29-6.25Z"/>
          <path class="cls-19" d="M431.13,406.35c.87.04,2.78,1.03,2.86,1.82.32,2.88-16.24,5.27-11.19.78.33-.29,7.9-2.63,8.33-2.6Z"/>
          <path class="cls-24" d="M621.7,346.99c6.82-1.79,6.51,18.4-.78.78.3-.21.59-.73.78-.78Z"/>
        </g>
      </g>
      <g>
        <path class="cls-24" d="M418.37,278.26c3.29,3.88,12.87,4.57,16.92,6.25,5.12,2.11,4.32,9.8,19.27-.52l-2.08,5.73c9.45-4.79,14.37,3.88,8.85,7.29-3.59,2.22-23.49-.17-24.73,10.15-.67,5.57,10.64,3.44,15.88,16.4,2.62-2.78,5.23-7.42,9.11-7.55-7.57-19.87,12.21-23.25,11.72-8.07q4.17-3.12,8.33-6.25c4.58,13.5,6.52,9.08,9.63,12.76,2.24,2.65,10.86,26.03,9.89,28.64-2.26,6.07-13.52-14.16-16.4-14.84-2.06-.48-7.64,2.76-9.37,4.17-10.01,8.11,7.86-3.48,9.11,1.3,1.04,4-14.33,10.97-17.96,12.24l-29.94,36.19c.79,3.96,4.28,13.52,3.64,16.66-1.73,8.51-6.01-12.09-11.19-17.96-20.53,2.34-36.37-11.65-43.48,6.51-4.04,10.31-2.06,30.6,3.91,34.11,6.93,4.07,23.7-13.67,29.68-9.37,4.7,3.38-7.56,12.86-9.63,18.48,18.08,3.64,13.06,12.02,19.01,25.25,10.21.67,11.1,1.72,18.22,8.33.6-24.17,24.27-10.69,39.57-10.41,7.46,3.34,11.7,10.89,18.22,15.62,17.78-1.43,17.44,10.69,29.16,20.31,7.21,4.37,38.77,5.94,34.11,25.25-.55,2.28-19.51,35.59-22.39,41.13-15.45,12.07-33.55,38.95-50.25,41.39-4.07,6.57-8.21,7.99-9.37,16.66-33.54.78-15.44-23.77-17.96-54.41-2.51-30.42-25.8-25.22-32.28-52.07-6.93-28.7,21.68-45.59-9.63-46.08-7.6-6.24-14.85-13.08-22.91-18.74-11.09-7.78-35.32-19.99-36.97-21.35-7.96-6.56-3.31-17.87-3.91-23.17-.82-7.33-16.27-23.73-4.17-54.67,5.3-13.56,29.83-39.64,41.13-51.03l-7.29-.78c.07-.05.48-1.07.78-1.56,8.73-3.7,16.86-8.66,25.77-11.98Z"/>
        <path class="cls-21" d="M421.23,283.98c3.94-.97,4.34,3.3,2.08,4.17-3.56,1.37-5.22-3.39-2.08-4.17Z"/>
      </g>
    </g>
    <path class="cls-25" d="M850.69,344.91c-.09,3.36-.15,6.73-.15,10.1v249.37c0,3.32-.44,6.55-1.26,9.62-4.23,15.95-18.77,27.7-36.05,27.7H139.11c-17.28,0-31.83-11.75-36.06-27.7-.82-3.07-1.26-6.3-1.26-9.62v-300.55c0-6.91.32-13.7,1.02-20.37.42-3.86.96-7.68,1.65-11.45,3.5-19.42,10.8-37.56,23.68-54.01,1.99-2.54,4.06-5.02,6.19-7.43,3.52-3.98,7.23-7.8,11.09-11.46,14.88-14.11,32.05-25.93,49.73-36.04,14.74-8.43,30.06-15.81,45.79-22.28,10.22-4.19,20.6-7.99,31.12-11.45,36.83-12.08,75.25-19.81,113.3-24.59,30.28-3.8,60.82-5.61,91.33-5.61,68.7,0,138.36,8.77,203.83,30.2,3.62,1.19,7.25,2.4,10.85,3.68,6.88,2.41,13.82,4.99,20.74,7.77,34.65,13.85,69.08,32.39,95.87,58.32,3.78,3.67,7.42,7.49,10.87,11.46,2.75,3.14,5.39,6.39,7.9,9.73,8.68,11.57,15.72,24.48,19.81,38.41,1.29,4.42,2.31,8.85,3.08,13.3.67,3.81,1.17,7.63,1.53,11.45.08.85.17,1.7.23,2.54,1.56,19.51-.17,39.21-.71,58.91Z"/>
    <path class="cls-29" d="M850.55,283.83c0-.16,0-.06,0,.75,0,.01,0,.02,0,.03,0-.22,0-.63,0-.79Z"/>
    <rect class="cls-18" x="55.5" y="121.5" width="859" height="8"/>
    <rect class="cls-18" x="56.5" y="187.5" width="859" height="8"/>
    <rect class="cls-18" x="55.5" y="278.5" width="859" height="8"/>
    <rect class="cls-18" x="55.5" y="381.5" width="859" height="8"/>
    <rect class="cls-18" x="55.5" y="485.5" width="859" height="8"/>
    <rect class="cls-18" x="55.5" y="594.5" width="859" height="8"/>
  </g>
  <path id="background" class="cls-13" d="M34,15.5v677.5h888V15.5H34ZM101.79,604v-300.17c0-6.91.32-13.7,1.02-20.37.42-3.86.96-7.68,1.65-11.45,3.5-19.42,10.8-37.56,23.68-54.01,1.99-2.54,4.06-5.02,6.19-7.43,3.52-3.98,7.23-7.8,11.09-11.46,14.88-14.11,32.05-25.93,49.73-36.04,14.74-8.43,30.06-15.81,45.79-22.28,10.22-4.19,20.6-7.99,31.12-11.45,36.83-12.08,75.25-19.81,113.3-24.59,30.28-3.8,60.82-5.61,91.33-5.61,68.7,0,138.36,8.77,203.83,30.2,3.62,1.19,7.25,2.4,10.85,3.68,6.88,2.41,13.82,4.99,20.74,7.77,34.65,13.85,69.08,32.39,95.87,58.32,3.78,3.67,7.42,7.49,10.87,11.46,2.75,3.14,5.39,6.39,7.9,9.73,8.68,11.57,15.72,24.48,19.81,38.41,1.29,4.42,2.31,8.85,3.08,13.3.67,3.81,1.17,7.63,1.53,11.45.08.85.17,1.7.23,2.54,1.56,19.51-.17,39.21-.71,58.91-.09,3.36-.15,6.73-.15,10.1v248.99H101.79Z"/>
  <path id="bannerBG2" class="cls-10" d="M725.77,426.51v205.73c0,23.46-20.95,42.47-46.8,42.47h-405.86c-25.85,0-46.8-19.02-46.8-42.47v-250.03c0-4.76.14-9.47.44-14.1.26-4.17.65-8.28,1.19-12.33,2.27-17.24,7.16-33.34,15.95-47.88,3.97-6.56,8.38-12.62,13.11-18.26,3.67-4.36,7.52-8.48,11.52-12.33,6.43-6.23,13.19-11.85,20.08-16.96,36.35-26.98,78-41.63,119.35-49.18,2.51-.46,5.01-.9,7.52-1.3,20.2-3.3,40.56-4.87,60.92-4.87,22.99,0,46.14,1.91,69.02,6.17,25.25,4.67,50.17,12.21,74.19,23.16,22.38,10.2,45.55,23.8,64.95,42.98,3.93,3.86,7.71,7.97,11.28,12.33,5.12,6.23,9.85,12.96,14.07,20.26,5.8,10.02,10.5,21.19,13.22,33.25.95,4.19,1.67,8.41,2.2,12.63.47,3.65.8,7.32,1.03,11,.03.45.05.89.07,1.33,1.06,19.34-.65,38.9-.65,58.41Z"/>
  <g>
    <path class="cls-2" d="M607.36,301.81c19.19-.98,35.74,10.49,42.79,28.16,13.52,2.54,24.43,14.8,25.96,28.44,1.69,15.04-6.9,31.15-22.42,34.22h-97.49c-26.23-2.82-38.15-33.73-21.86-54.36,8.46-10.72,23.59-15.74,36.56-11.1,6.41-14.17,20.85-24.57,36.47-25.36Z"/>
    <path class="cls-15" d="M606.24,309.27c12.93-1.12,25.17,4.53,32.65,15.2,3.76,5.36,5.1,11.45,6.05,12.03,18.79,1.64,30.16,22.26,20.56,38.88-2.47,4.27-7.62,8.92-12.56,9.98h-96.01c-23.29-3.13-30.94-32.54-12.28-46.99,13.45-10.42,26.48-2.96,28.09-2.8,4.45.45,3.56-4.99,8.84-12.03,5.52-7.37,15.45-13.47,24.65-14.27Z"/>
  </g>
  <g>
    <path class="cls-2" d="M322.5,515.43c19.23-.98,35.82,10.49,42.89,28.16,13.55,2.54,24.48,14.8,26.01,28.44,1.69,15.04-6.91,31.15-22.47,34.22h-97.72c-26.29-2.82-38.23-33.73-21.91-54.36,8.48-10.72,23.65-15.74,36.64-11.1,6.43-14.17,20.9-24.57,36.55-25.36Z"/>
    <path class="cls-11" d="M321.38,522.89c12.96-1.12,25.23,4.53,32.73,15.2,3.77,5.36,5.11,11.45,6.06,12.03,18.83,1.64,30.23,22.26,20.61,38.88-2.47,4.27-7.64,8.92-12.59,9.98h-96.23c-23.34-3.13-31.01-32.54-12.31-46.99,13.48-10.42,26.54-2.96,28.16-2.8,4.46.45,3.57-4.99,8.86-12.03,5.53-7.37,15.49-13.47,24.71-14.27Z"/>
  </g>
  <g id="banner-text">
    <path class="banner-text cls-28" d="M106.87,629.38h28.46l4.96,74.55h.55l5.33-74.55h28.65v120.83h-21.3l2.02-92h-.73l-9.36,92h-12.67l-9.36-92h-.55l1.84,92h-17.81v-120.83Z"/>
    <path class="banner-text cls-28" d="M106.87,629.38h28.46l4.96,74.55h.55l5.33-74.55h28.65v120.83h-21.3l2.02-92h-.73l-9.36,92h-12.67l-9.36-92h-.55l1.84,92h-17.81v-120.83Z"/>
    <path class="banner-text cls-28" d="M185.09,629.38h21.3v120.83h-21.3v-120.83Z"/>
    <path class="banner-text cls-28" d="M215.94,689.8c0-51.6,7.53-61.7,25.34-61.7,18.73,0,23.32,11.57,23.32,41.87,0,5.33-.37,12.12-.55,15.79h-17.63c.18-3.67.37-9.73.37-15.06,0-19.83-.55-22.77-4.22-22.77-4.04,0-5.32,3.67-5.32,41.87s.73,41.87,5.14,41.87c3.49,0,4.41-3.31,4.41-22.04,0-3.49-.18-8.26-.37-11.02h17.81c.18,2.75.37,6.98.37,11.2,0,31.03-6.06,41.68-23.69,41.68-19.65,0-24.97-10.83-24.97-61.7Z"/>
    <path class="banner-text cls-28" d="M273.23,629.38h21.3v48.84h11.94v-48.84h21.3v120.83h-21.3v-52.52h-11.94v52.52h-21.3v-120.83Z"/>
    <path class="banner-text cls-28" d="M337.32,629.38h37.64v19.83h-16.34v32.68h13.59v15.06h-13.59v33.42h17.44v19.83h-38.74v-120.83Z"/>
    <path class="banner-text cls-28" d="M412.05,725.79h-9.92l-1.47,24.42h-21.48l14.87-120.83h29.75l15.24,120.83h-25.52l-1.47-24.42ZM411.13,709.99l-3.49-59.31h-.92l-3.67,59.31h8.08Z"/>
    <path class="banner-text cls-28" d="M445.65,629.38h21.3v100.99h12.85v19.83h-34.15v-120.83Z"/>
    <path class="banner-text cls-28" d="M509.92,629.38h37.46v19.83h-16.16v35.26h13.22v16.16h-13.22v49.58h-21.3v-120.83Z"/>
    <path class="banner-text cls-28" d="M553.25,629.38h37.64v19.83h-16.34v32.68h13.59v15.06h-13.59v33.42h17.44v19.83h-38.74v-120.83Z"/>
    <path class="banner-text cls-28" d="M597.69,629.38h21.3v100.99h12.85v19.83h-34.15v-120.83Z"/>
    <path class="banner-text cls-28" d="M635.51,689.25c0-47.56,6.98-61.15,26.07-61.15s26.08,13.59,26.08,61.15c0,50.13-7.16,62.25-26.08,62.25s-26.07-12.12-26.07-62.25ZM666.36,689.25c0-37.46-1.29-41.32-4.77-41.32s-4.77,3.86-4.77,41.32c0,39.29,1.29,42.42,4.77,42.42s4.77-3.12,4.77-42.42Z"/>
    <path class="banner-text cls-28" d="M696.47,629.38h23.69c21.48,0,25.34,11.94,25.34,31.03,0,14.14-1.47,22.95-9.92,26.26v.18c9.92,3.12,12.12,13.4,12.12,28.46,0,25.34-4.77,34.89-24.97,34.89h-26.26v-120.83ZM720.16,681.35c4.77,0,6.24-2.94,6.24-16.16s-.73-17.81-5.88-17.81h-2.75v33.97h2.39ZM721.45,732.21c4.59,0,5.69-2.02,5.69-19.83,0-13.04-1.1-16.71-6.43-16.71h-2.94v36.54h3.67Z"/>
    <path class="banner-text cls-28" d="M756.15,629.38h37.64v19.83h-16.34v32.68h13.59v15.06h-13.59v33.42h17.44v19.83h-38.74v-120.83Z"/>
    <path class="banner-text cls-28" d="M799.12,707.42h18.73c0,22.4.92,26.07,5.14,26.07,3.67,0,4.59-2.2,4.59-14.69,0-7.9-.73-11.02-2.57-13.59-1.65-2.2-4.96-4.59-8.45-7.16-3.12-2.2-7.9-5.51-11.02-9.73-3.31-4.22-6.43-12.3-6.43-25.52,0-24.79,8.63-34.71,24.42-34.71,19.46,0,23.5,9.18,23.5,45.91h-18.18c0-25.16-.55-27.91-3.86-27.91s-4.59,2.75-4.59,14.51c0,9.73.92,13.59,2.75,15.79,1.65,2.02,5.33,4.77,9.36,7.53,4.22,2.94,8.63,6.43,11.02,10.28,3.31,5.33,5.14,12.3,5.14,22.95,0,25.52-7.16,34.34-25.16,34.34-20.2,0-24.42-12.12-24.42-44.07Z"/>
  </g>
  <g>
    <g>
      <g>
        <path class="cls-7" d="M618.9,300.28c-.57-.45-1.47-1.13-2.07-1.55.96.65,1.18.83,2.07,1.55Z"/>
        <path class="cls-7" d="M350.16,309.59h-.52c.12-.18-.36-1.21.78-1.03l-.26,1.03Z"/>
      </g>
      <g>
        <g>
          <path class="cls-22" d="M596.68,263.07c3.34,7.28,5.34,21.38.52,28.43-.95-.22-6.09-.81-6.2-1.29,10.21-7.5,5.35-26.06-1.03-34.89,2.75,1.58,5.4,4.87,6.72,7.75Z"/>
          <path class="cls-9" d="M601.85,292.01c-.22-.07-.31.48-4.65-.52,4.82-7.04,2.82-21.15-.52-28.43,6.85,8.01,7.56,19.1,5.17,28.94Z"/>
        </g>
        <g>
          <path class="cls-7" d="M641.64,334.39c4.42,18.03,2.54,36.77-4.13,54.01-9.24,23.86-15.66,14.02-14.47,55.82.18,6.41.95,17.79,1.55,24.29,1.98,21.23,9.01,47.19,9.82,66.41.77,18.28-1.42,35.1-13.44,49.61-1.17-1.79-.6-1.51-1.03-2.07,23.82-33.13,5.83-72.89,2.07-114.48-.93-10.32-2.83-46.94-.52-54.78,15.29-24.21,24.57-49.1,18.09-78.04-2.71-12.08-10.98-27-20.67-34.89,11.45,8.99,19.23,19.79,22.74,34.11Z"/>
          <g>
            <path class="cls-26" d="M350.67,309.59c-7.85,11.36-7.65,29.3,5.17,36.95-6.34,18.92,7.64,31.91,26.36,29.46q-.26,10.47-.52,20.93c-10.74.34-17.79,8.78-18.61,19.12-1.3,16.54,11.31,35.67,27.13,40.83,1.83.6,6.81-.06,6.98,2.58,7.13,30.96,22.27,49.23,48.58,66.67-.98,1.98-.38,4.51-.52,6.72-.16,2.51.06,4.61,0,6.98,0,.28-1.03,1.21-1.03,1.29-29.01,8.65-69.97,16.64-89.41,41.86-24.54-29.59-5.97-71.75-1.55-106.21,1.84-14.36,4.98-50.95,1.03-63.57-2.55-8.16-39.98-52.56-5.17-103.11.02-.03.12.07.52-.52h1.03Z"/>
            <path class="cls-7" d="M354.81,582.98c-.66.86-1.46,1.66-2.07,2.58-17.88-25.72-13.58-44.41-8.79-72.36,4.81-28.06,11.78-57.63,9.82-86.57-1.3-19.19-8.9-21.59-14.99-36.69-10.32-25.63-9.12-58.35,9.82-79.85h.52c-34.81,50.55,2.61,94.94,5.17,103.11,3.95,12.62.81,49.21-1.03,63.57-4.42,34.46-22.99,76.61,1.55,106.21Z"/>
          </g>
          <path class="cls-26" d="M616.84,298.73c.59.42,1.49,1.1,2.07,1.55,9.69,7.89,17.97,22.8,20.67,34.89,6.48,28.94-2.8,53.83-18.09,78.04-2.31,7.84-.42,44.47.52,54.78,3.76,41.59,21.75,81.34-2.07,114.48-.54-.7-11.57-10.68-13.18-11.89-21.47-16.08-51.16-21.68-76.23-29.46-.02-.51-1.7-1.99-1.03-9.82v-5.69c26.09-17.68,41.84-37.41,49.61-68.22,21.52-1.31,43.05-32.81,29.46-51.68-4.78-6.63-8.62-7.43-16.54-8.53v-20.16c.69-1.48,14.82,2.02,23.26-8.79,4.9-6.27,5.76-14.17,3.62-21.71,18.15-15.95,10.7-39.31-8.27-50.39.49-.48,5.91,2.39,6.2,2.58Z"/>
        </g>
        <g>
          <path class="cls-4" d="M530.53,541.12c25.08,7.78,54.76,13.38,76.23,29.46,1.61,1.2,12.63,11.19,13.18,11.89.43.56-.14.27,1.03,2.07,2.07,3.17,5.89,11.58,6.2,14.99.02.18-.36.87-.26,3.62-23.18,5.33-47.21,3.77-70.8,5.17-43.43-1.35-166.02,2.63-200.01-3.1-3.22-.54-10.08-1.01-10.08-4.65,0-3.17,4.72-11.94,6.72-14.99.61-.93,1.4-1.72,2.07-2.58,19.44-25.22,60.4-33.22,89.41-41.86-.14,7.56,1.17,15.39.52,23,19.13,24.54,49.06,30.44,74.68,11.11,13.31-10.04,11.9-16.2,11.11-34.11Z"/>
          <g>
            <g>
              <path class="cls-1" d="M585.83,411.4c6.96,2.08,10.73,7.06,14.47,12.92,1.56,7.67-.92,10.93-1.29,17.57,5.97-4.68,6.92-11.49,10.59-17.06-2.2,11.74-10.37,21.88-20.93,27.39-2.83,1.47-5.95,2.38-9.04,3.1,3.54-15.01,4.46-28.43,5.17-43.67.02-.42,1.03-.21,1.03-.26Z"/>
              <path class="cls-5" d="M607.02,407.26c4.42,6.38,3.92,10.44,2.58,17.57-3.67,5.57-4.62,12.38-10.59,17.06.37-6.64,2.85-9.91,1.29-17.57-1.44-7.09-7.44-15.32-14.99-16.54,0-.32-1.15-5.22-.52-6.46,8.18-2.97,17.08-1.47,22.22,5.94Z"/>
              <path class="cls-23" d="M608.57,405.71c13.59,18.87-7.94,50.37-29.46,51.68.17-.67.36-1.41.52-2.07,3.09-.72,6.22-1.63,9.04-3.1,10.56-5.51,18.73-15.65,20.93-27.39,1.33-7.13,1.84-11.19-2.58-17.57,2.23-.03-.23-.73-.26-2.07l1.81.52Z"/>
              <path class="cls-27" d="M600.3,424.32c-3.74-5.86-7.51-10.84-14.47-12.92.03-.55-.57-1.31-.52-3.62,7.54,1.22,13.55,9.45,14.99,16.54Z"/>
            </g>
            <g>
              <path class="cls-14" d="M529.49,525.62v5.69c-31.15,22.3-52.11,21.97-84.24,1.55.14-2.2-.47-4.74.52-6.72,29.05,19.25,54.99,18.96,83.73-.52Z"/>
              <path class="cls-17" d="M529.49,531.3c-.67,7.83,1.01,9.31,1.03,9.82.78,17.91,2.19,24.07-11.11,34.11-25.62,19.33-55.55,13.43-74.68-11.11.66-7.61-.66-15.44-.52-23,0-.08,1.03-1.01,1.03-1.29.06-2.37-.16-4.47,0-6.98,32.13,20.42,53.09,20.75,84.24-1.55Z"/>
            </g>
          </g>
          <g>
            <path class="cls-4" d="M589.96,255.32c6.39,8.82,11.24,27.39,1.03,34.89.11.48,5.25,1.07,6.2,1.29,4.34,1,4.43.45,4.65.52.41.12,6.65,3.03,7.75,3.62.4.21.82.39,1.03.52,18.97,11.08,26.42,34.44,8.27,50.39,2.14,7.54,1.28,15.43-3.62,21.71-8.44,10.81-22.56,7.31-23.26,8.79v20.16c7.92,1.1,11.76,1.9,16.54,8.53l-1.81-.52c.03,1.33,2.48,2.04.26,2.07-5.14-7.41-14.04-8.92-22.22-5.94-.64,1.24.52,6.14.52,6.46-.06,2.31.54,3.06.52,3.62,0,.05-1.01-.17-1.03.26-.71,15.25-1.62,28.66-5.17,43.67-.16.66-.35,1.4-.52,2.07-7.77,30.81-23.53,50.54-49.61,68.22-28.74,19.47-54.68,19.77-83.73.52-26.31-17.44-41.45-35.71-48.58-66.67-.02-.07.83.14.52-1.29-.03-.12-1.53-1.69-1.55-1.81-2.04-10.07-3.21-20.78-4.13-31.01v-24.03c-3.27-3.7-8.91-2.32-10.34-4.39q.26-10.47.52-20.93c-18.72,2.45-32.69-10.53-26.36-29.46-12.82-7.65-13.02-25.59-5.17-36.95,4.69-6.78,17.15-15.99,25.32-18.35-3.05-11.15-2.1-22.83,4.91-32.3-4.55,10.6-7.23,16.04-5.43,28.17,2.41.14.38,5.54,6.72,3.62-9.72-12.36-2.95-32.94,9.04-41.6,13.28-9.59,39.53-12.92,54.27-5.17.43-37.79,82.46-37.18,84.24,0,17.2-8.16,48.5-4.8,60.21,11.37Z"/>
            <g>
              <path class="cls-7" d="M616.84,298.73c-.29-.2-5.71-3.06-6.2-2.58-.21-.12-.64-.3-1.03-.52-2.22-4.09,3.03.11,7.24,3.1Z"/>
              <g>
                <path class="cls-26" d="M488.92,252.73c6.16-.22,14.13,1.99,19.12,5.69,16.92,12.54,2.91,31.26,15.5,35.14,5.61,1.73,21.13-1.84,24.55,19.38-7.56-27.99-29.34-9.77-32.04-27.91-.53-3.54,3.06-22.8-15.76-29.2-11.43-3.89-27.2-.93-33.85,10.08-7.06,11.68,2.75,26.79-13.18,29.2-6.91,1.05-19.07-4.29-25.84,17.57-13.25,2.06-21.12,11.49-19.38,25.07.36,2.78,7.48,18.09,5.94,18.35-8.71-19.4-13.19-37.67,12.4-43.93,8.71-25.59,22.47-13.75,32.04-20.16,8.42-5.64-1.08-16.8,9.04-29.2,4.77-5.85,14.06-9.81,21.45-10.08Z"/>
                <path class="cls-8" d="M428.97,248.6c4.07-.59-4.05,2.07-6.2,3.62-6.63,4.78-11.62,15.73-6.46,23-13.74,10.59-12.8,30.22-1.29,35.92.72.36,11.54,3.24,2.07,1.55-11.59-2.07-17.98-24.71-1.81-37.47-5.61-9.41,3.29-25.12,13.7-26.62Z"/>
                <path class="cls-8" d="M565.67,367.99c-16.48-6.25,8.14-26.41-2.58-45.22-5.31-9.31-20.5-10.66-8.53-8.53,22.6,12.78,7.17,36.23,6.46,39.54-.87,4.05-.15,12.87,4.65,14.21Z"/>
                <g>
                  <path class="cls-12" d="M550.94,252.22c9.15,2.89,13.51,15.49,6.98,23,15.73,6.93,17.35,34.73-1.55,37.21,18.25-5.02,16.55-29.65.52-36.69,6.8-9.27,3.13-17.75-5.94-23.52Z"/>
                  <path class="cls-16" d="M510.37,251.7c7.63-4.47,16.99-5.09,24.81-.78-9.66-3.09-15.4-3.04-24.81.78Z"/>
                </g>
                <g>
                  <path class="cls-12" d="M588.93,301.32c13,3.59,15.54,24.54,4.91,32.56-2.78.13,3.96-2.95,5.43-9.04,2.15-8.93-1.59-19.51-10.34-23.52Z"/>
                  <path class="cls-12" d="M588.93,301.32c-9.11-2.51-16.94.14-17.83,0-3.43-.53,6.31-2.22,10.34-2.07,2.58.1,5.12.98,7.49,2.07Z"/>
                </g>
                <path class="cls-7" d="M565.67,367.99c3.53.99,6.55-1.05,9.82-1.81-4.06,2.65-5.3,3.52-9.82,1.81Z"/>
                <g>
                  <path class="cls-7" d="M391.24,299.77c.84-.12,10.59-.27,10.59.26-18.73-1.19-30.96,8.7-25.58,28.17-6.28-11.72,1.77-26.6,14.99-28.43Z"/>
                  <path class="cls-7" d="M382.2,333.88c2.36,1.02,5.08,1.25,7.49,2.07,24.8-1.47,2.12,3.81-7.49-2.07Z"/>
                  <path class="cls-7" d="M382.2,333.88c-2.19-.95-4.13-2.12-5.17-4.39,1.74.54,3.85,3.59,5.17,4.39Z"/>
                </g>
                <path class="cls-16" d="M391.76,290.98c2.63-1.16,9.12,1.45-.26.26.07-.11.15-.21.26-.26Z"/>
                <g>
                  <path class="cls-16" d="M462.31,249.12c1.87.86,3.75,1.84,5.17,3.36,6.06,6.49,2.55,4.79-5.17-3.36Z"/>
                  <path class="cls-16" d="M462.31,249.12l-4.65-1.29c1.78-.89,3.31.67,4.65,1.29Z"/>
                  <path class="cls-16" d="M510.37,251.7c-.14.08-1.32,2.2-3.1,1.29,1.77-1.43,2.92-1.22,3.1-1.29Z"/>
                </g>
                <g>
                  <path class="cls-17" d="M487.89,314.75c8.72,18.25,29.66,9.35,45.22,12.66-6.81,25.54,5.45,43.06,31.53,46.51,8,37.41,9.58,80.66-34.64,95.07-4.15,13.46-6.33,28.2-17.82,36.98-16.59,12.68-18.74,4.87-36.69,7.75-20.65-8.34-26.12-23.53-31.49-44.73-26.04-7.77-38.85-29.23-38.03-54.76.43-13.14,5.02-26.07,5.17-39.28,1.32-2.99,36.97,1.94,33.08-45.48,15.42-4.83,34.89,2.67,43.67-14.73Z"/>
                  <g>
                    <path class="cls-17" d="M495.9,459.46c2.81-4.86-3.25,2.43-14.21,1.55-.18-.01-1.71-1.01-1.81-1.03-7.22-11.82-1.96-46.1-3.62-63.57,6.42.02,23.83-6.03,25.07-5.69.18.05,2.27,2.67,2.33,2.84,1.48,4.6-2.75,52.98-1.55,62.54-1.95,2.21-2.73,6.33-6.2,3.36Z"/>
                    <path class="cls-4" d="M448.61,396.93c15.7-1.72,15.66,29.31,9.82,33.59-3.36,2.46-11.43,2.62-14.99.52-6.06-3.59-7.92-32.67,5.17-34.11Z"/>
                    <path class="cls-4" d="M502.88,374.7c9.25.6,36.77-2.38,42.12,6.46,1.2,1.98,2.89,8.54.26,9.56-14.17-2.65-49.77,9-42.38-16.02Z"/>
                    <path class="cls-4" d="M444.99,374.7c7.97-.63,17.65.46,25.84,0,3.27,24.36-16.62,13.82-41.35,16.02-4.79-4.3-.18-12.48,5.17-14.47,2.88-1.07,7.27-1.31,10.34-1.55Z"/>
                    <path class="cls-4" d="M519.93,397.45c15.79-3,15.18,32.39,4.65,34.11-19.34,3.15-14.41-32.25-4.65-34.11Z"/>
                    <path class="cls-14" d="M476.26,396.41c1.66,17.47-3.6,51.74,3.62,63.57-7.77-1.46-11.39-6.68-8.79,1.03-.37-.07-5.82,1.38-7.49,0-3.72-3.06,5.87-24.92,7.49-42.64.63-6.9.09-15.64.52-22.74,5.72-1.11,4.38.77,4.65.78Z"/>
                    <g>
                      <path class="cls-4" d="M469.54,492.54c-7.07-1.89-15.81-6.15-14.73-14.99,10.05,12.15,53.73,10.94,64.34-.52-3.56,19.16-34.8,19.46-49.61,15.5Z"/>
                      <path class="cls-3" d="M519.16,477.04c-10.62,11.46-54.3,12.66-64.34.52-1.09,8.84,7.66,13.1,14.73,14.99-5.24,1.27-15.2-6.23-16.02-11.11-1.67-9.91,4.66-1.33,9.04.26.36.13,6.32-.42,7.24,1.55,9.33-1.68,21.47.52,29.46-.52.13-.02,1.94-1.53,2.07-1.55,1.68-.32,1.96.54,2.07.52.2-.04,3.42-2.02,3.62-2.07,1.14-.29,1.47.54,1.55.52.15-.04,2.44-1.51,2.58-1.55.68-.17,2.13.52,4.13,0,.93-.24,3.19-3.29,3.88-1.55Z"/>
                    </g>
                    <path class="cls-20" d="M479.88,459.98c.1.02,1.62,1.02,1.81,1.03,10.96.88,17.03-6.41,14.21-1.55-5.54,9.58-23.34,1.82-24.81,1.55-2.6-7.71,1.01-2.49,8.79-1.03Z"/>
                  </g>
                </g>
              </g>
            </g>
          </g>
          <g>
            <path class="cls-1" d="M390.47,408.82c-9.6-1.64-15.1,7.47-17.06,15.76,3.75-6.49,9.16-13.58,17.57-12.66.23,4.44.63,9,1.03,13.44.92,10.23,2.09,20.94,4.13,31.01-17.8-3.38-33.86-26.13-29.98-43.93,1.05-4.83,6.37-11.69,11.37-12.92,2.64,6.84,11.96,4.58,12.92,9.3Z"/>
            <path class="cls-23" d="M396.15,456.36c.02.12,1.52,1.69,1.55,1.81.31,1.43-.53,1.22-.52,1.29-.16-2.64-5.15-1.99-6.98-2.58-15.83-5.16-28.43-24.29-27.13-40.83,2.33.02-.73-2.96,3.1-3.62-3.88,17.8,12.18,40.55,29.98,43.93Z"/>
            <path class="cls-20" d="M381.68,396.93c1.42,2.07,7.07.69,10.34,4.39v24.03c-.4-4.43-.8-9-1.03-13.44-.04-.81.07-1.9,0-3.1-.24-4.21,3.24-8.95-7.49-9.82-1.58-.13-4.4.14-5.94.52-5,1.23-10.32,8.09-11.37,12.92-3.83.66-.77,3.64-3.1,3.62.81-10.34,7.87-18.78,18.61-19.12Z"/>
            <path class="cls-5" d="M390.99,408.82h-.52c-.96-4.72-10.28-2.46-12.92-9.3,1.54-.38,4.36-.64,5.94-.52,10.73.86,7.26,5.61,7.49,9.82Z"/>
            <path class="cls-27" d="M390.47,408.82h.52c.07,1.2-.04,2.29,0,3.1-8.41-.91-13.82,6.17-17.57,12.66,1.96-8.29,7.46-17.41,17.06-15.76Z"/>
          </g>
        </g>
      </g>
    </g>
    <rect class="cls-4" x="435" y="467" width="103" height="8"/>
  </g>
</svg>