<?xml version="1.0" encoding="UTF-8"?>
<svg id="Layer_1" data-name="Layer 1" xmlns="http://www.w3.org/2000/svg" viewBox="0 0 477 595">
  <defs>
    <style>
      .cls-1 {
        fill: #e48833;
      }

      .cls-1, .cls-2, .cls-3, .cls-4, .cls-5, .cls-6, .cls-7, .cls-8, .cls-9, .cls-10, .cls-11, .cls-12, .cls-13, .cls-14, .cls-15, .cls-16 {
        stroke-width: 0px;
      }

      .cls-2 {
        fill: #fbc882;
      }

      .cls-3 {
        fill: #1f2126;
      }

      .cls-4 {
        fill: #f49b45;
      }

      .cls-5 {
        fill: #48525a;
      }

      .cls-6 {
        fill: #969797;
      }

      .cls-7 {
        fill: #80858d;
      }

      .cls-8 {
        fill: #636c74;
      }

      .cls-9 {
        fill: #b66423;
      }

      .cls-10 {
        fill: #3d4047;
      }

      .cls-11 {
        fill: #feb16d;
      }

      .cls-12 {
        fill: #353120;
      }

      .cls-13 {
        fill: #e3e4e5;
      }

      .cls-14 {
        fill: #703f16;
      }

      .cls-15 {
        fill: #fdfdfd;
      }

      .cls-16 {
        fill: #95470b;
      }
    </style>
  </defs>
  <g>
    <path class="cls-5" d="M428.97,130.93c-.85-.67-2.18-1.67-3.06-2.29,1.41.97,1.75,1.23,3.06,2.29Z"/>
    <path class="cls-5" d="M31.35,144.69h-.76c.18-.27-.54-1.79,1.15-1.53l-.38,1.53Z"/>
  </g>
  <g>
    <g>
      <path class="cls-13" d="M396.09,75.87c4.94,10.77,7.9,31.64.76,42.06-1.4-.32-9.01-1.2-9.18-1.91,15.11-11.09,7.92-38.56-1.53-51.61,4.07,2.34,7.99,7.21,9.94,11.47Z"/>
      <path class="cls-7" d="M403.74,118.69c-.33-.1-.47.71-6.88-.76,7.14-10.42,4.17-31.29-.76-42.06,10.14,11.85,11.19,28.26,7.65,42.82Z"/>
    </g>
    <g>
      <path class="cls-5" d="M462.62,181.39c6.54,26.67,3.76,54.4-6.12,79.91-13.68,35.31-23.16,20.74-21.41,82.58.27,9.49,1.4,26.32,2.29,35.94,2.92,31.41,13.33,69.82,14.53,98.26,1.14,27.04-2.1,51.94-19.88,73.41-1.73-2.65-.89-2.23-1.53-3.06,35.24-49.02,8.62-107.84,3.06-169.37-1.38-15.27-4.18-69.45-.76-81.05,22.63-35.81,36.35-72.65,26.76-115.46-4-17.88-16.25-39.95-30.59-51.61,16.94,13.3,28.45,29.28,33.64,50.47Z"/>
      <g>
        <path class="cls-15" d="M32.12,144.69c-11.61,16.8-11.32,43.36,7.65,54.67-9.37,28,11.3,47.21,39,43.58q-.38,15.48-.76,30.97c-15.89.51-26.33,12.99-27.53,28.29-1.92,24.47,16.73,52.78,40.14,60.41,2.7.88,10.08-.08,10.32,3.82,10.55,45.8,32.94,72.84,71.88,98.64-1.45,2.93-.56,6.68-.76,9.94-.23,3.71.09,6.82,0,10.32-.01.41-1.53,1.79-1.53,1.91-42.93,12.79-103.52,24.62-132.28,61.94-36.3-43.79-8.84-106.15-2.29-157.14,2.73-21.24,7.37-75.38,1.53-94.05-3.78-12.08-59.14-77.76-7.65-152.55.03-.04.17.1.76-.76h1.53Z"/>
        <path class="cls-5" d="M38.24,549.19c-.98,1.27-2.16,2.45-3.06,3.82-26.45-38.06-20.09-65.71-13-107.05,7.12-41.51,17.42-85.26,14.53-128.08-1.92-28.4-13.17-31.95-22.17-54.29C-.74,225.67,1.04,177.27,29.06,145.45h.76c-51.5,74.79,3.87,140.47,7.65,152.55,5.84,18.67,1.2,72.81-1.53,94.05-6.54,50.98-34.01,113.35,2.29,157.14Z"/>
      </g>
      <path class="cls-15" d="M425.91,128.63c.88.62,2.21,1.63,3.06,2.29,14.34,11.67,26.58,33.74,30.59,51.61,9.59,42.81-4.14,79.65-26.76,115.46-3.42,11.6-.62,65.79.76,81.05,5.56,61.53,32.18,120.35-3.06,169.37-.81-1.04-17.12-15.81-19.5-17.59-31.77-23.79-75.69-32.07-112.79-43.58-.03-.75-2.52-2.95-1.53-14.53v-8.41c38.6-26.15,61.9-55.35,73.41-100.93,31.84-1.94,63.7-48.54,43.58-76.46-7.07-9.81-12.75-10.99-24.47-12.62v-29.82c1.02-2.19,21.93,2.99,34.41-13,7.25-9.28,8.52-20.97,5.35-32.12,26.86-23.59,15.83-58.17-12.23-74.55.72-.7,8.74,3.53,9.18,3.82Z"/>
    </g>
    <g>
      <path class="cls-3" d="M298.22,487.25c37.1,11.51,81.02,19.79,112.79,43.58,2.38,1.78,18.69,16.55,19.5,17.59.64.83-.2.4,1.53,3.06,3.06,4.7,8.72,17.14,9.18,22.17.02.27-.54,1.28-.38,5.35-34.3,7.89-69.84,5.58-104.76,7.65-64.26-2-245.64,3.89-295.92-4.59-4.76-.8-14.92-1.49-14.91-6.88,0-4.68,6.99-17.67,9.94-22.17.9-1.37,2.08-2.55,3.06-3.82,28.76-37.31,89.36-49.15,132.28-61.94-.21,11.18,1.74,22.77.76,34.03,28.3,36.31,72.58,45.04,110.49,16.44,19.69-14.85,17.6-23.97,16.44-50.47Z"/>
      <g>
        <g>
          <path class="cls-1" d="M380.03,295.33c10.29,3.08,15.87,10.44,21.41,19.12,2.3,11.34-1.36,16.17-1.91,26,8.84-6.92,10.24-16.99,15.68-25.23-3.25,17.37-15.34,32.38-30.97,40.53-4.18,2.18-8.81,3.53-13.38,4.59,5.24-22.21,6.6-42.06,7.65-64.61.03-.63,1.53-.3,1.53-.38Z"/>
          <path class="cls-4" d="M411.38,289.21c6.54,9.44,5.8,15.45,3.82,26-5.43,8.24-6.84,18.31-15.68,25.23.55-9.82,4.21-14.66,1.91-26-2.13-10.49-11.02-22.66-22.17-24.47.01-.48-1.71-7.72-.76-9.56,12.1-4.4,25.27-2.18,32.88,8.79Z"/>
          <path class="cls-14" d="M413.68,286.91c20.11,27.92-11.75,74.52-43.58,76.46.25-.99.53-2.09.76-3.06,4.58-1.06,9.2-2.41,13.38-4.59,15.63-8.15,27.72-23.15,30.97-40.53,1.97-10.54,2.72-16.56-3.82-26,3.29-.04-.34-1.09-.38-3.06l2.68.76Z"/>
          <path class="cls-16" d="M401.44,314.44c-5.54-8.67-11.12-16.04-21.41-19.12.04-.82-.85-1.93-.76-5.35,11.16,1.8,20.05,13.98,22.17,24.47Z"/>
        </g>
        <g>
          <path class="cls-9" d="M296.69,464.31v8.41c-46.09,33-77.1,32.5-124.64,2.29.2-3.26-.69-7.01.76-9.94,42.98,28.48,81.35,28.05,123.87-.76Z"/>
          <path class="cls-11" d="M296.69,472.72c-.99,11.58,1.5,13.78,1.53,14.53,1.16,26.5,3.25,35.61-16.44,50.47-37.91,28.6-82.19,19.87-110.49-16.44.97-11.26-.97-22.85-.76-34.03,0-.12,1.52-1.5,1.53-1.91.09-3.5-.23-6.61,0-10.32,47.53,30.21,78.55,30.7,124.64-2.29Z"/>
        </g>
      </g>
      <g>
        <path class="cls-3" d="M386.15,64.4c9.45,13.05,16.64,40.52,1.53,51.61.16.71,7.77,1.59,9.18,1.91,6.42,1.48,6.55.66,6.88.76.61.18,9.83,4.48,11.47,5.35.59.31,1.22.58,1.53.76,28.07,16.39,39.09,50.96,12.23,74.55,3.17,11.15,1.89,22.83-5.35,32.12-12.48,15.99-33.38,10.81-34.41,13v29.82c11.71,1.63,17.4,2.81,24.47,12.62l-2.68-.76c.04,1.97,3.68,3.01.38,3.06-7.61-10.97-20.78-13.19-32.88-8.79-.94,1.84.78,9.08.76,9.56-.09,3.42.8,4.53.76,5.35,0,.08-1.5-.25-1.53.38-1.05,22.56-2.4,42.4-7.65,64.61-.23.97-.52,2.07-.76,3.06-11.5,45.58-34.81,74.78-73.41,100.93-42.52,28.81-80.89,29.25-123.87.76-38.93-25.8-61.33-52.84-71.88-98.64-.02-.1,1.23.2.76-1.91-.04-.17-2.26-2.5-2.29-2.68-3.02-14.89-4.75-30.74-6.12-45.88v-35.56c-4.84-5.48-13.19-3.43-15.29-6.5q.38-15.48.76-30.97c-27.7,3.63-48.37-15.59-39-43.58-18.97-11.32-19.26-37.87-7.65-54.67,6.94-10.04,25.38-23.66,37.47-27.15-4.52-16.49-3.11-33.77,7.26-47.79-6.74,15.68-10.7,23.73-8.03,41.67,3.56.2.56,8.19,9.94,5.35-14.38-18.28-4.36-48.74,13.38-61.55,19.65-14.19,58.49-19.12,80.29-7.65.63-55.91,122-55.01,124.64,0,25.44-12.07,71.76-7.11,89.08,16.82Z"/>
        <g>
          <path class="cls-5" d="M425.91,128.63c-.43-.29-8.45-4.53-9.18-3.82-.31-.18-.94-.45-1.53-.76-3.28-6.05,4.48.17,10.71,4.59Z"/>
          <g>
            <path class="cls-15" d="M236.66,60.58c9.12-.33,20.91,2.94,28.29,8.41,25.04,18.56,4.31,46.26,22.94,52,8.3,2.56,31.26-2.73,36.32,28.67-11.18-41.42-43.41-14.45-47.41-41.29-.78-5.24,4.53-33.73-23.32-43.2-16.92-5.75-40.24-1.37-50.08,14.91-10.45,17.27,4.07,39.64-19.5,43.2-10.23,1.55-28.21-6.34-38.23,26-19.61,3.05-31.24,17.01-28.67,37.09.53,4.12,11.07,26.76,8.79,27.15-12.89-28.7-19.51-55.74,18.35-65,12.89-37.86,33.25-20.34,47.41-29.82,12.46-8.34-1.59-24.86,13.38-43.2,7.06-8.65,20.8-14.51,31.73-14.91Z"/>
            <path class="cls-6" d="M147.96,54.46c6.02-.87-6,3.06-9.18,5.35-9.81,7.08-17.19,23.27-9.56,34.03-20.33,15.66-18.94,44.71-1.91,53.14,1.06.53,17.08,4.8,3.06,2.29-17.14-3.06-26.6-36.56-2.68-55.44-8.3-13.93,4.87-37.16,20.26-39.38Z"/>
            <path class="cls-6" d="M350.21,231.09c-24.38-9.25,12.04-39.08-3.82-66.91-7.86-13.78-30.33-15.76-12.62-12.62,33.44,18.91,10.61,53.61,9.56,58.5-1.28,5.99-.22,19.04,6.88,21.03Z"/>
            <g>
              <path class="cls-8" d="M328.42,59.81c13.54,4.27,19.99,22.92,10.32,34.03,23.28,10.26,25.67,51.38-2.29,55.05,27-7.43,24.49-43.87.76-54.29,10.07-13.71,4.64-26.27-8.79-34.79Z"/>
              <path class="cls-10" d="M268.39,59.05c11.29-6.61,25.13-7.53,36.7-1.15-14.29-4.57-22.78-4.5-36.7,1.15Z"/>
            </g>
            <g>
              <path class="cls-8" d="M384.62,132.46c19.24,5.31,22.99,36.3,7.26,48.17-4.11.19,5.86-4.37,8.03-13.38,3.19-13.22-2.35-28.86-15.29-34.79Z"/>
              <path class="cls-8" d="M384.62,132.46c-13.49-3.72-25.07.2-26.38,0-5.07-.78,9.34-3.29,15.29-3.06,3.81.15,7.58,1.45,11.09,3.06Z"/>
            </g>
            <path class="cls-5" d="M350.21,231.09c5.22,1.46,9.69-1.55,14.53-2.68-6.01,3.91-7.84,5.21-14.53,2.68Z"/>
            <g>
              <path class="cls-5" d="M92.14,130.16c1.25-.17,15.67-.4,15.68.38-27.71-1.76-45.8,12.87-37.85,41.67-9.29-17.33,2.61-39.35,22.17-42.06Z"/>
              <path class="cls-5" d="M78.76,180.63c3.49,1.51,7.51,1.85,11.09,3.06,36.69-2.17,3.14,5.64-11.09-3.06Z"/>
              <path class="cls-5" d="M78.76,180.63c-3.24-1.4-6.12-3.13-7.65-6.5,2.58.8,5.69,5.31,7.65,6.5Z"/>
            </g>
            <path class="cls-10" d="M92.91,117.16c3.89-1.71,13.49,2.14-.38.38.11-.17.23-.31.38-.38Z"/>
            <g>
              <path class="cls-10" d="M197.28,55.23c2.76,1.27,5.54,2.72,7.65,4.97,8.96,9.6,3.77,7.09-7.65-4.97Z"/>
              <path class="cls-10" d="M197.28,55.23l-6.88-1.91c2.63-1.32,4.89,1,6.88,1.91Z"/>
              <path class="cls-10" d="M268.39,59.05c-.21.13-1.96,3.25-4.59,1.91,2.62-2.11,4.31-1.8,4.59-1.91Z"/>
            </g>
            <g>
              <path class="cls-11" d="M235.13,152.34c12.89,27,43.88,13.83,66.91,18.73-10.07,37.79,8.06,63.71,46.64,68.82,11.83,55.36,19.55,121.67-45.88,142.99-6.13,19.92-14.74,39.39-31.73,52.38-24.54,18.75-27.73,7.21-54.29,11.47-30.56-12.35-42.91-31.71-50.85-63.08-38.53-11.5-53.22-46.34-52-84.11.63-19.44,7.42-38.58,7.65-58.11,1.95-4.42,54.7,2.87,48.94-67.29,22.81-7.15,51.62,3.95,64.61-21.79Z"/>
              <g>
                <path class="cls-11" d="M246.98,366.44c4.16-7.19-4.81,3.59-21.03,2.29-.27-.02-2.52-1.5-2.68-1.53-10.69-17.5-2.9-68.2-5.35-94.05,9.49.03,35.25-8.92,37.09-8.41.26.07,3.36,3.95,3.44,4.21,2.2,6.8-4.07,78.38-2.29,92.52-2.89,3.26-4.03,9.37-9.18,4.97Z"/>
                <path class="cls-3" d="M177.02,273.92c23.24-2.55,23.17,43.36,14.53,49.7-4.96,3.64-16.9,3.88-22.17.76-8.97-5.3-11.72-48.34,7.65-50.47Z"/>
                <path class="cls-3" d="M257.31,241.04c13.69.88,54.41-3.52,62.32,9.56,1.77,2.93,4.28,12.64.38,14.15-20.96-3.92-73.63,13.31-62.7-23.7Z"/>
                <path class="cls-3" d="M171.67,241.04c11.79-.93,26.11.69,38.23,0,4.83,36.04-24.58,20.45-61.17,23.7-7.09-6.36-.27-18.46,7.65-21.41,4.26-1.59,10.76-1.94,15.29-2.29Z"/>
                <path class="cls-3" d="M282.54,274.68c23.36-4.44,22.45,47.93,6.88,50.47-28.61,4.66-21.33-47.72-6.88-50.47Z"/>
                <path class="cls-9" d="M217.93,273.15c2.46,25.85-5.33,76.56,5.35,94.05-11.5-2.16-16.85-9.88-13,1.53-.55-.1-8.61,2.04-11.09,0-5.5-4.53,8.68-36.87,11.09-63.08.94-10.21.14-23.14.76-33.64,8.46-1.65,6.48,1.15,6.88,1.15Z"/>
                <g>
                  <path class="cls-3" d="M207.99,415.38c-10.46-2.79-23.4-9.1-21.79-22.17,14.86,17.97,79.49,16.19,95.2-.76-5.26,28.35-51.49,28.79-73.41,22.94Z"/>
                  <path class="cls-2" d="M281.39,392.44c-15.71,16.95-80.34,18.74-95.2.76-1.61,13.08,11.33,19.38,21.79,22.17-7.75,1.87-22.49-9.21-23.7-16.44-2.46-14.66,6.9-1.96,13.38.38.53.19,9.35-.62,10.71,2.29,13.8-2.48,31.77.77,43.58-.76.19-.02,2.87-2.26,3.06-2.29,2.49-.47,2.9.8,3.06.76.3-.06,5.05-2.98,5.35-3.06,1.69-.43,2.18.79,2.29.76.22-.05,3.61-2.24,3.82-2.29,1-.25,3.15.76,6.12,0,1.37-.35,4.71-4.87,5.73-2.29Z"/>
                </g>
                <path class="cls-12" d="M223.28,367.2c.15.03,2.4,1.51,2.68,1.53,16.21,1.3,25.19-9.49,21.03-2.29-8.2,14.17-34.53,2.69-36.7,2.29-3.85-11.41,1.5-3.69,13-1.53Z"/>
              </g>
            </g>
          </g>
        </g>
      </g>
      <g>
        <path class="cls-1" d="M91,291.5c-14.2-2.43-22.34,11.05-25.23,23.32,5.54-9.61,13.55-20.09,26-18.73.34,6.57.94,13.32,1.53,19.88,1.37,15.14,3.1,30.99,6.12,45.88-26.33-5-50.09-38.66-44.35-65,1.56-7.14,9.43-17.29,16.82-19.12,3.91,10.12,17.7,6.78,19.12,13.76Z"/>
        <path class="cls-14" d="M99.41,361.85c.04.17,2.26,2.5,2.29,2.68.46,2.11-.79,1.81-.76,1.91-.24-3.91-7.62-2.94-10.32-3.82-23.42-7.63-42.06-35.94-40.14-60.41,3.45.03-1.08-4.38,4.59-5.35-5.74,26.34,18.02,60,44.35,65Z"/>
        <path class="cls-12" d="M78,273.92c2.11,3.07,10.45,1.02,15.29,6.5v35.56c-.59-6.56-1.19-13.31-1.53-19.88-.06-1.2.1-2.81,0-4.59-.35-6.23,4.79-13.25-11.09-14.53-2.35-.19-6.51.2-8.79.76-7.39,1.82-15.26,11.97-16.82,19.12-5.67.97-1.14,5.38-4.59,5.35,1.2-15.3,11.64-27.79,27.53-28.29Z"/>
        <path class="cls-4" d="M91.76,291.5h-.76c-1.42-6.98-15.2-3.65-19.12-13.76,2.28-.56,6.45-.95,8.79-.76,15.88,1.28,10.73,8.29,11.09,14.53Z"/>
        <path class="cls-16" d="M91,291.5h.76c.1,1.78-.06,3.39,0,4.59-12.45-1.35-20.45,9.13-26,18.73,2.9-12.27,11.03-25.75,25.23-23.32Z"/>
      </g>
    </g>
  </g>
</svg>