<?xml version="1.0" encoding="UTF-8"?>
<svg id="Layer_1" data-name="Layer 1" xmlns="http://www.w3.org/2000/svg" viewBox="0 0 951 761">
  <defs>
    <style>
      .cls-1 {
        fill: #f2f2f2;
        font-family: RocGrotesk-CompressedBold, 'Roc Grotesk';
        font-size: 183.62px;
        font-weight: 700;
      }

      .cls-2 {
        fill: #3e343a;
      }

      .cls-2, .cls-3, .cls-4, .cls-5, .cls-6, .cls-7, .cls-8, .cls-9, .cls-10, .cls-11, .cls-12, .cls-13 {
        stroke-width: 0px;
      }

      .cls-14 {
        fill: none;
        stroke: #000;
        stroke-miterlimit: 10;
      }

      .cls-3 {
        fill: #4087b2;
      }

      .cls-5 {
        fill: #e4ecef;
      }

      .cls-6 {
        fill: #141414;
      }

      .cls-7 {
        fill: #e4e9ea;
      }

      .cls-8 {
        fill: #494949;
      }

      .cls-9 {
        fill: #ff9700;
      }

      .cls-10 {
        fill: #e4e77f;
      }

      .cls-11 {
        fill: #549ea3;
      }

      .cls-15 {
        letter-spacing: 0em;
      }

      .cls-12 {
        fill: #cfdd88;
      }

      .cls-13 {
        fill: #1e1e1e;
      }
    </style>
  </defs>
  <g>
    <g>
      <path class="cls-12" d="M639.14,369.9c2.3,4.66,4.94,8.85,6.77,13.8,11.73,31.77,12.53,70.67,3.12,103.1-.86,2.97-9.33,25.59-10.41,27.6-.29.54-.91.92-1.56.78,2.64-8.38,14.38-48.94,2.34-52.07-7.97-2.07-22.52,15.29-34.89,11.46-6.04-1.87-15.63-20.04-17.96-26.29.31-8.38,1.09-16.58,1.04-24.99-.08-13.42-7.08-16.58,8.85-32.8-1.6-5.27-4.13-11.79-1.56-17.18.36-.77,10.95-11.87,11.72-12.24,5.51-2.68,8.44,1.65,12.5-7.29,8.68,8.59-5.9,6.16,11.46,19.79l.52-8.33,8.07,4.69Z"/>
      <path class="cls-12" d="M560,287.11c3.15,2.03,21.24,15.03,20.83,16.92-.32,1.45-4.49,2.64-3.91,3.38,10.44,2.66,12.79,6.62,12.76-1.04.18.14,1.11-.16,1.3,0,11.19,8.88,21.74,20.36,29.94,32.02.21.3-.21,2.04,0,2.34-2.86-2.3-.81,6.6,0,8.59-.7,1.78-4.86-7.25-9.63-9.11-8.39-3.27,3.56,2.92,5.99,8.59,4.91,11.47-8.25-7.16-9.11-7.55-5.45-2.47-7.98,3.92-7.55,10.15.05.73,4.67,8.99-2.86,12.76-13.5,6.75-13.29-13.6-17.96-21.09l7.03-1.82c-1.52-14.75-17.65-4.36-8.07-17.44-11.77,4.7-6.82-.57-16.92-12.24-2.85-.86,8.49,17.06-1.56,11.98-4.17-2.11-5.65-12.51-6.51-13.8-.89-1.33-7.55-4.36-7.81-5.21-.26-.83.66-4.24,1.82-4.43,1.07-.17,16.57,9.48,18.74,10.93,2.02,1.35,12.2,10.27,13.02,10.41,1.32.22,2.86-2.16,2.86-2.34.03-1.85-20.78-20.95-24.47-25.51-2.33-2.88-8.07-10.07-6.25-11.19,3.02,1.53,5.47,2.85,8.33,4.69Z"/>
      <path class="cls-3" d="M589.68,306.37c.03,7.66-2.32,3.7-12.76,1.04-.58-.75,3.59-1.94,3.91-3.38.41-1.89-17.68-14.9-20.83-16.92,10.95,4.75,20.37,11.98,29.68,19.27Z"/>
      <g>
        <path class="cls-3" d="M551.67,282.42c-1.82,1.12,3.91,8.31,6.25,11.19,3.69,4.56,24.5,23.66,24.47,25.51,0,.18-1.55,2.57-2.86,2.34-.82-.14-10.99-9.06-13.02-10.41-2.18-1.45-17.67-11.1-18.74-10.93-1.16.18-2.08,3.6-1.82,4.43.26.85,6.92,3.87,7.81,5.21.86,1.29,2.34,11.69,6.51,13.8,10.05,5.08-1.29-12.84,1.56-11.98,10.1,11.66,5.15,16.94,16.92,12.24-9.58,13.09,6.55,2.69,8.07,17.44l-7.03,1.82c4.67,7.49,4.46,27.84,17.96,21.09,7.53-3.77,2.91-12.03,2.86-12.76-.43-6.23,2.1-12.62,7.55-10.15.86.39,14.02,19.02,9.11,7.55-2.43-5.67-14.37-11.86-5.99-8.59,4.78,1.86,8.94,10.89,9.63,9.11-.81-1.99-2.86-10.89,0-8.59,9.03,13,10.48,13.51,18.22,29.16l-8.07-4.69-.52,8.33c-17.36-13.62-2.77-11.2-11.46-19.79-4.06,8.94-6.99,4.61-12.5,7.29-.76.37-11.35,11.47-11.72,12.24-2.56,5.39-.04,11.91,1.56,17.18-15.93,16.22-8.94,19.39-8.85,32.8.05,8.42-.74,16.61-1.04,24.99,2.33,6.26,11.92,24.42,17.96,26.29,12.36,3.83,26.92-13.53,34.89-11.46,12.04,3.13.3,43.69-2.34,52.07-.14.43-.14,2.55-1.04,4.95-48.06,93.76-168.87,123.89-255.4,62.74-98.52-69.62-98.81-224.34,11.19-291.07l7.29.78c-11.3,11.39-35.83,37.47-41.13,51.03-12.1,30.94,3.34,47.35,4.17,54.67.6,5.3-4.06,16.61,3.91,23.17,1.65,1.36,25.88,13.56,36.97,21.35,8.06,5.66,15.31,12.5,22.91,18.74,31.31.49,2.71,17.39,9.63,46.08,6.48,26.85,29.78,21.65,32.28,52.07,2.53,30.65-15.57,55.19,17.96,54.41,1.16-8.67,5.31-10.09,9.37-16.66,16.7-2.45,34.79-29.32,50.25-41.39,2.88-5.54,21.84-38.86,22.39-41.13,4.66-19.32-26.9-20.88-34.11-25.25-11.72-9.62-11.38-21.74-29.16-20.31-6.52-4.73-10.76-12.28-18.22-15.62-15.3-.27-38.97-13.76-39.57,10.41-7.12-6.61-8.01-7.66-18.22-8.33-5.94-13.23-.93-21.61-19.01-25.25,2.07-5.62,14.33-15.11,9.63-18.48-5.98-4.3-22.75,13.44-29.68,9.37-5.97-3.5-7.94-23.8-3.91-34.11,7.11-18.16,22.94-4.17,43.48-6.51,5.18,5.87,9.46,26.47,11.19,17.96.64-3.14-2.85-12.71-3.64-16.66l29.94-36.19c3.63-1.26,19.01-8.24,17.96-12.24-1.25-4.78-19.12,6.81-9.11-1.3,1.73-1.4,7.31-4.65,9.37-4.17,2.88.68,14.14,20.91,16.4,14.84.97-2.61-7.65-25.99-9.89-28.64-3.11-3.68-5.05.74-9.63-12.76q-4.17,3.12-8.33,6.25c.5-15.18-19.28-11.8-11.72,8.07-3.88.13-6.49,4.77-9.11,7.55-5.24-12.96-16.55-10.83-15.88-16.4,1.24-10.32,21.15-7.94,24.73-10.15,5.52-3.41.6-12.08-8.85-7.29l2.08-5.73c-14.95,10.32-14.15,2.63-19.27.52-4.06-1.67-13.63-2.37-16.92-6.25,40.93-15.25,93.89-15.82,133.3,4.17Z"/>
        <g>
          <path class="cls-12" d="M488.92,273.57c13.24-1.26,23.8,4.06,34.11,11.72-6.42,8.63-6.22,12.53-9.11,22.65-2.08-1.28-16.21-10.22-16.4-11.19-.13-.67,2.45-4.84,2.08-5.73-.14-.34-5.38-2.46-6.51-3.38-5.04-4.15-1.67-8.41-15.36-10.15,1.52-1.66,9.44-3.74,11.19-3.91Z"/>
          <path class="cls-12" d="M468.62,275.65c8.69-1.06,8.88.51.78,2.86,11.01,4.69,10.59,11.12,11.19,11.72,1.62,1.6,7.23-1.04,3.91,5.47-4.13,8.08-14.49,4.27-17.7-2.6-2.87-6.13,6.25.48,6.25-5.21,0-.96-4.31-4.45-4.95-5.99.5,11.29-16.1,5.02-4.43-1.82-11.91,1.03,1.11-3.96,4.95-4.43Z"/>
          <path class="cls-12" d="M450.39,278.26c.54,0,1.09-.16,1.3.26-4.12,3.48-2.25,11.34-9.63,9.63-7.05-1.63-2.04-9.95,8.33-9.89Z"/>
          <path class="cls-12" d="M525.89,291.27c4.21-1.14,13.16,4.36,7.29,6.25-6.03,1.94-12.58-4.81-7.29-6.25Z"/>
          <path class="cls-10" d="M431.13,406.35c.87.04,2.78,1.03,2.86,1.82.32,2.88-16.24,5.27-11.19.78.33-.29,7.9-2.63,8.33-2.6Z"/>
          <path class="cls-12" d="M621.7,346.99c6.82-1.79,6.51,18.4-.78.78.3-.21.59-.73.78-.78Z"/>
        </g>
      </g>
      <g>
        <path class="cls-12" d="M418.37,278.26c3.29,3.88,12.87,4.57,16.92,6.25,5.12,2.11,4.32,9.8,19.27-.52l-2.08,5.73c9.45-4.79,14.37,3.88,8.85,7.29-3.59,2.22-23.49-.17-24.73,10.15-.67,5.57,10.64,3.44,15.88,16.4,2.62-2.78,5.23-7.42,9.11-7.55-7.57-19.87,12.21-23.25,11.72-8.07q4.17-3.12,8.33-6.25c4.58,13.5,6.52,9.08,9.63,12.76,2.24,2.65,10.86,26.03,9.89,28.64-2.26,6.07-13.52-14.16-16.4-14.84-2.06-.48-7.64,2.76-9.37,4.17-10.01,8.11,7.86-3.48,9.11,1.3,1.04,4-14.33,10.97-17.96,12.24l-29.94,36.19c.79,3.96,4.28,13.52,3.64,16.66-1.73,8.51-6.01-12.09-11.19-17.96-20.53,2.34-36.37-11.65-43.48,6.51-4.04,10.31-2.06,30.6,3.91,34.11,6.93,4.07,23.7-13.67,29.68-9.37,4.7,3.38-7.56,12.86-9.63,18.48,18.08,3.64,13.06,12.02,19.01,25.25,10.21.67,11.1,1.72,18.22,8.33.6-24.17,24.27-10.69,39.57-10.41,7.46,3.34,11.7,10.89,18.22,15.62,17.78-1.43,17.44,10.69,29.16,20.31,7.21,4.37,38.77,5.94,34.11,25.25-.55,2.28-19.51,35.59-22.39,41.13-15.45,12.07-33.55,38.95-50.25,41.39-4.07,6.57-8.21,7.99-9.37,16.66-33.54.78-15.44-23.77-17.96-54.41-2.51-30.42-25.8-25.22-32.28-52.07-6.93-28.7,21.68-45.59-9.63-46.08-7.6-6.24-14.85-13.08-22.91-18.74-11.09-7.78-35.32-19.99-36.97-21.35-7.96-6.56-3.31-17.87-3.91-23.17-.82-7.33-16.27-23.73-4.17-54.67,5.3-13.56,29.83-39.64,41.13-51.03l-7.29-.78c.07-.05.48-1.07.78-1.56,8.73-3.7,16.86-8.66,25.77-11.98Z"/>
        <path class="cls-11" d="M421.23,283.98c3.94-.97,4.34,3.3,2.08,4.17-3.56,1.37-5.22-3.39-2.08-4.17Z"/>
      </g>
    </g>
    <path class="cls-13" d="M850.69,344.91c-.09,3.36-.15,6.73-.15,10.1v249.37c0,3.32-.44,6.55-1.26,9.62-4.23,15.95-18.77,27.7-36.05,27.7H139.11c-17.28,0-31.83-11.75-36.06-27.7-.82-3.07-1.26-6.3-1.26-9.62v-300.55c0-6.91.32-13.7,1.02-20.37.42-3.86.96-7.68,1.65-11.45,3.5-19.42,10.8-37.56,23.68-54.01,1.99-2.54,4.06-5.02,6.19-7.43,3.52-3.98,7.23-7.8,11.09-11.46,14.88-14.11,32.05-25.93,49.73-36.04,14.74-8.43,30.06-15.81,45.79-22.28,10.22-4.19,20.6-7.99,31.12-11.45,36.83-12.08,75.25-19.81,113.3-24.59,30.28-3.8,60.82-5.61,91.33-5.61,68.7,0,138.36,8.77,203.83,30.2,3.62,1.19,7.25,2.4,10.85,3.68,6.88,2.41,13.82,4.99,20.74,7.77,34.65,13.85,69.08,32.39,95.87,58.32,3.78,3.67,7.42,7.49,10.87,11.46,2.75,3.14,5.39,6.39,7.9,9.73,8.68,11.57,15.72,24.48,19.81,38.41,1.29,4.42,2.31,8.85,3.08,13.3.67,3.81,1.17,7.63,1.53,11.45.08.85.17,1.7.23,2.54,1.56,19.51-.17,39.21-.71,58.91Z"/>
    <path class="cls-14" d="M850.55,283.83c0-.16,0-.06,0,.75,0,.01,0,.02,0,.03,0-.22,0-.63,0-.79Z"/>
    <rect class="cls-9" x="55.5" y="121.5" width="859" height="8"/>
    <rect class="cls-9" x="56.5" y="187.5" width="859" height="8"/>
    <rect class="cls-9" x="55.5" y="278.5" width="859" height="8"/>
    <rect class="cls-9" x="55.5" y="381.5" width="859" height="8"/>
    <rect class="cls-9" x="55.5" y="485.5" width="859" height="8"/>
    <rect class="cls-9" x="55.5" y="594.5" width="859" height="8"/>
  </g>
  <path id="background" class="cls-6" d="M34,15.5v677.5h888V15.5H34ZM101.79,604v-300.17c0-6.91.32-13.7,1.02-20.37.42-3.86.96-7.68,1.65-11.45,3.5-19.42,10.8-37.56,23.68-54.01,1.99-2.54,4.06-5.02,6.19-7.43,3.52-3.98,7.23-7.8,11.09-11.46,14.88-14.11,32.05-25.93,49.73-36.04,14.74-8.43,30.06-15.81,45.79-22.28,10.22-4.19,20.6-7.99,31.12-11.45,36.83-12.08,75.25-19.81,113.3-24.59,30.28-3.8,60.82-5.61,91.33-5.61,68.7,0,138.36,8.77,203.83,30.2,3.62,1.19,7.25,2.4,10.85,3.68,6.88,2.41,13.82,4.99,20.74,7.77,34.65,13.85,69.08,32.39,95.87,58.32,3.78,3.67,7.42,7.49,10.87,11.46,2.75,3.14,5.39,6.39,7.9,9.73,8.68,11.57,15.72,24.48,19.81,38.41,1.29,4.42,2.31,8.85,3.08,13.3.67,3.81,1.17,7.63,1.53,11.45.08.85.17,1.7.23,2.54,1.56,19.51-.17,39.21-.71,58.91-.09,3.36-.15,6.73-.15,10.1v248.99H101.79Z"/>
  <path id="bannerBG2" class="cls-4" d="M725.77,426.51v205.73c0,23.46-20.95,42.47-46.8,42.47h-405.86c-25.85,0-46.8-19.02-46.8-42.47v-250.03c0-4.76.14-9.47.44-14.1.26-4.17.65-8.28,1.19-12.33,2.27-17.24,7.16-33.34,15.95-47.88,3.97-6.56,8.38-12.62,13.11-18.26,3.67-4.36,7.52-8.48,11.52-12.33,6.43-6.23,13.19-11.85,20.08-16.96,36.35-26.98,78-41.63,119.35-49.18,2.51-.46,5.01-.9,7.52-1.3,20.2-3.3,40.56-4.87,60.92-4.87,22.99,0,46.14,1.91,69.02,6.17,25.25,4.67,50.17,12.21,74.19,23.16,22.38,10.2,45.55,23.8,64.95,42.98,3.93,3.86,7.71,7.97,11.28,12.33,5.12,6.23,9.85,12.96,14.07,20.26,5.8,10.02,10.5,21.19,13.22,33.25.95,4.19,1.67,8.41,2.2,12.63.47,3.65.8,7.32,1.03,11,.03.45.05.89.07,1.33,1.06,19.34-.65,38.9-.65,58.41Z"/>
  <g>
    <path class="cls-2" d="M607.36,301.81c19.19-.98,35.74,10.49,42.79,28.16,13.52,2.54,24.43,14.8,25.96,28.44,1.69,15.04-6.9,31.15-22.42,34.22h-97.49c-26.23-2.82-38.15-33.73-21.86-54.36,8.46-10.72,23.59-15.74,36.56-11.1,6.41-14.17,20.85-24.57,36.47-25.36Z"/>
    <path class="cls-7" d="M606.24,309.27c12.93-1.12,25.17,4.53,32.65,15.2,3.76,5.36,5.1,11.45,6.05,12.03,18.79,1.64,30.16,22.26,20.56,38.88-2.47,4.27-7.62,8.92-12.56,9.98h-96.01c-23.29-3.13-30.94-32.54-12.28-46.99,13.45-10.42,26.48-2.96,28.09-2.8,4.45.45,3.56-4.99,8.84-12.03,5.52-7.37,15.45-13.47,24.65-14.27Z"/>
  </g>
  <g>
    <path class="cls-2" d="M322.5,515.43c19.23-.98,35.82,10.49,42.89,28.16,13.55,2.54,24.48,14.8,26.01,28.44,1.69,15.04-6.91,31.15-22.47,34.22h-97.72c-26.29-2.82-38.23-33.73-21.91-54.36,8.48-10.72,23.65-15.74,36.64-11.1,6.43-14.17,20.9-24.57,36.55-25.36Z"/>
    <path class="cls-5" d="M321.38,522.89c12.96-1.12,25.23,4.53,32.73,15.2,3.77,5.36,5.11,11.45,6.06,12.03,18.83,1.64,30.23,22.26,20.61,38.88-2.47,4.27-7.64,8.92-12.59,9.98h-96.23c-23.34-3.13-31.01-32.54-12.31-46.99,13.48-10.42,26.54-2.96,28.16-2.8,4.46.45,3.57-4.99,8.86-12.03,5.53-7.37,15.49-13.47,24.71-14.27Z"/>
  </g>
  <g>
    <path class="cls-9" d="M614.71,376.53c2.14,4.33,4.6,8.23,6.3,12.84,10.92,29.57,11.66,65.77,2.91,95.94-.8,2.77-8.68,23.81-9.69,25.68-.27.51-.84.85-1.45.73,2.46-7.8,13.38-45.54,2.18-48.46-7.41-1.93-20.96,14.22-32.46,10.66-5.62-1.74-14.55-18.65-16.72-24.47.28-7.8,1.02-15.43.97-23.26-.08-12.49-6.58-15.43,8.24-30.53-1.49-4.91-3.84-10.97-1.45-15.99.34-.71,10.19-11.04,10.9-11.39,5.13-2.49,7.85,1.54,11.63-6.78,8.08,7.99-5.49,5.74,10.66,18.41l.48-7.75q3.76,2.18,7.51,4.36Z"/>
    <path class="cls-9" d="M541.06,299.49c2.93,1.89,19.77,13.99,19.38,15.75-.29,1.35-4.18,2.45-3.63,3.15,9.72,2.47,11.9,6.16,11.87-.97.16.13,1.03-.15,1.21,0,10.42,8.26,20.23,18.95,27.86,29.8.2.28-.19,1.9,0,2.18-2.66-2.14-.76,6.14,0,8-.65,1.66-4.52-6.75-8.96-8.48-7.8-3.04,3.31,2.72,5.57,8,4.57,10.67-7.68-6.66-8.48-7.03-5.07-2.29-7.43,3.65-7.03,9.45.05.68,4.35,8.37-2.67,11.87-12.57,6.28-12.37-12.65-16.72-19.62l6.54-1.7c-1.41-13.73-16.43-4.05-7.51-16.23-10.95,4.37-6.34-.53-15.75-11.39-2.66-.8,7.9,15.88-1.45,11.14-3.88-1.96-5.26-11.64-6.06-12.84-.83-1.24-7.02-4.06-7.27-4.85-.24-.77.61-3.95,1.7-4.12,1-.16,15.42,8.82,17.44,10.18,1.88,1.26,11.35,9.56,12.11,9.69,1.23.21,2.66-2.01,2.67-2.18.03-1.73-19.34-19.5-22.77-23.74-2.17-2.68-7.51-9.37-5.81-10.42,2.81,1.42,5.09,2.65,7.75,4.36Z"/>
    <path class="cls-4" d="M568.68,317.42c.03,7.13-2.16,3.44-11.87.97-.54-.7,3.34-1.8,3.63-3.15.38-1.76-16.45-13.86-19.38-15.75,10.19,4.42,18.96,11.15,27.62,17.93Z"/>
    <g>
      <path class="cls-8" d="M533.31,295.13c-1.69,1.04,3.64,7.73,5.81,10.42,3.44,4.25,22.8,22.02,22.77,23.74,0,.17-1.44,2.39-2.67,2.18-.76-.13-10.23-8.43-12.11-9.69-2.03-1.35-16.45-10.33-17.44-10.18-1.08.17-1.93,3.35-1.7,4.12.24.79,6.44,3.6,7.27,4.85.8,1.2,2.18,10.88,6.06,12.84,9.36,4.73-1.2-11.95,1.45-11.14,9.4,10.85,4.79,15.76,15.75,11.39-8.92,12.18,6.1,2.5,7.51,16.23l-6.54,1.7c4.35,6.97,4.15,25.91,16.72,19.62,7.01-3.5,2.71-11.19,2.67-11.87-.4-5.8,1.96-11.74,7.03-9.45.8.36,13.05,17.7,8.48,7.03-2.26-5.28-13.38-11.03-5.57-8,4.45,1.73,8.32,10.14,8.96,8.48-.76-1.85-2.66-10.14,0-8,8.4,12.1,9.75,12.57,16.96,27.13q-3.76-2.18-7.51-4.36l-.48,7.75c-16.15-12.68-2.58-10.42-10.66-18.41-3.77,8.32-6.5,4.29-11.63,6.78-.71.34-10.56,10.67-10.9,11.39-2.39,5.02-.04,11.08,1.45,15.99-14.82,15.1-8.31,18.04-8.24,30.53.05,7.83-.68,15.46-.97,23.26,2.17,5.82,11.09,22.73,16.72,24.47,11.5,3.56,25.05-12.59,32.46-10.66,11.2,2.92.28,40.66-2.18,48.46-.13.4-.13,2.37-.97,4.6-44.72,87.25-157.14,115.29-237.67,58.39-91.68-64.78-91.95-208.76,10.42-270.86l6.78.73c-10.52,10.6-33.34,34.87-38.28,47.49-11.26,28.79,3.11,44.06,3.88,50.88.55,4.93-3.78,15.46,3.63,21.56,1.53,1.26,24.09,12.62,34.4,19.87,7.5,5.27,14.25,11.64,21.32,17.44,29.14.46,2.52,16.18,8.96,42.88,6.03,24.98,27.71,20.14,30.04,48.46,2.35,28.52-14.49,51.36,16.72,50.64,1.08-8.07,4.94-9.39,8.72-15.51,15.54-2.28,32.38-27.29,46.76-38.52,2.68-5.16,20.32-36.16,20.84-38.28,4.34-17.98-25.03-19.43-31.74-23.5-10.91-8.95-10.59-20.23-27.13-18.9-6.07-4.4-10.01-11.43-16.96-14.54-14.24-.25-36.27-12.8-36.83,9.69-6.63-6.15-7.46-7.13-16.96-7.75-5.53-12.31-.87-20.11-17.69-23.5,1.93-5.23,13.33-14.06,8.96-17.2-5.56-4-21.17,12.51-27.62,8.72-5.55-3.26-7.39-22.14-3.63-31.74,6.62-16.9,21.35-3.88,40.46-6.06,4.82,5.46,8.81,24.64,10.42,16.72.59-2.92-2.66-11.82-3.39-15.51q13.93-16.84,27.86-33.68c3.38-1.17,17.69-7.67,16.72-11.39-1.16-4.45-17.79,6.34-8.48-1.21,1.61-1.3,6.81-4.33,8.72-3.88,2.68.63,13.16,19.46,15.26,13.81.9-2.43-7.12-24.19-9.21-26.65-2.9-3.42-4.7.69-8.96-11.87q-3.88,2.91-7.75,5.81c.46-14.13-17.94-10.98-10.9,7.51-3.61.12-6.04,4.44-8.48,7.03-4.87-12.06-15.4-10.08-14.78-15.26,1.15-9.6,19.68-7.39,23.02-9.45,5.13-3.17.56-11.24-8.24-6.78l1.94-5.33c-13.91,9.61-13.17,2.45-17.93.48-3.77-1.56-12.68-2.21-15.75-5.81,38.09-14.19,87.37-14.72,124.05,3.88Z"/>
      <g>
        <path class="cls-9" d="M474.92,286.89c12.32-1.18,22.15,3.78,31.74,10.9-5.98,8.03-5.79,11.66-8.48,21.08-1.93-1.19-15.08-9.51-15.26-10.42-.12-.63,2.28-4.5,1.94-5.33-.13-.32-5.01-2.29-6.06-3.15-4.69-3.86-1.56-7.83-14.29-9.45,1.42-1.55,8.79-3.48,10.42-3.63Z"/>
        <path class="cls-9" d="M456.02,288.83c8.09-.99,8.27.47.73,2.67,10.25,4.36,9.86,10.35,10.42,10.9,1.51,1.49,6.73-.97,3.63,5.09-3.84,7.51-13.48,3.98-16.47-2.42-2.67-5.7,5.81.44,5.81-4.85,0-.89-4.01-4.14-4.6-5.57.46,10.51-14.98,4.67-4.12-1.7-11.08.96,1.04-3.68,4.6-4.12Z"/>
        <path class="cls-9" d="M439.06,291.25c.5,0,1.01-.14,1.21.24-3.83,3.23-2.09,10.56-8.96,8.96-6.56-1.52-1.9-9.26,7.75-9.21Z"/>
        <path class="cls-9" d="M509.32,303.37c3.91-1.07,12.25,4.06,6.78,5.81-5.61,1.81-11.7-4.48-6.78-5.81Z"/>
        <path class="cls-9" d="M421.13,410.45c.81.04,2.58.96,2.67,1.7.29,2.68-15.12,4.91-10.42.73.3-.27,7.35-2.44,7.75-2.42Z"/>
        <path class="cls-9" d="M598.48,355.21c6.35-1.66,6.06,17.12-.73.73.28-.2.55-.68.73-.73Z"/>
      </g>
    </g>
    <g>
      <path class="cls-9" d="M409.26,291.25c3.06,3.61,11.97,4.26,15.75,5.81,4.76,1.97,4.02,9.12,17.93-.48l-1.94,5.33c8.8-4.46,13.37,3.61,8.24,6.78-3.34,2.06-21.86-.15-23.02,9.45-.62,5.19,9.9,3.2,14.78,15.26,2.44-2.59,4.87-6.9,8.48-7.03-7.04-18.49,11.37-21.64,10.9-7.51q3.88-2.91,7.75-5.81c4.26,12.56,6.07,8.45,8.96,11.87,2.08,2.46,10.11,24.22,9.21,26.65-2.1,5.65-12.58-13.18-15.26-13.81-1.92-.45-7.11,2.57-8.72,3.88-9.32,7.55,7.32-3.24,8.48,1.21.97,3.72-13.34,10.21-16.72,11.39q-13.93,16.84-27.86,33.68c.74,3.68,3.99,12.59,3.39,15.51-1.61,7.92-5.6-11.26-10.42-16.72-19.11,2.18-33.84-10.84-40.46,6.06-3.76,9.59-1.92,28.48,3.63,31.74,6.45,3.78,22.06-12.72,27.62-8.72,4.37,3.14-7.04,11.97-8.96,17.2,16.82,3.39,12.16,11.19,17.69,23.5,9.5.62,10.33,1.6,16.96,7.75.56-22.49,22.58-9.95,36.83-9.69,6.95,3.11,10.89,10.14,16.96,14.54,16.55-1.33,16.23,9.95,27.13,18.9,6.71,4.07,36.07,5.52,31.74,23.5-.51,2.12-18.15,33.12-20.84,38.28-14.38,11.24-31.22,36.24-46.76,38.52-3.78,6.11-7.64,7.43-8.72,15.51-31.21.72-14.37-22.12-16.72-50.64-2.33-28.31-24.01-23.47-30.04-48.46-6.45-26.7,20.17-42.42-8.96-42.88-7.07-5.81-13.82-12.18-21.32-17.44-10.32-7.24-32.87-18.6-34.4-19.87-7.41-6.11-3.08-16.63-3.63-21.56-.77-6.82-15.14-22.08-3.88-50.88,4.94-12.62,27.76-36.89,38.28-47.49l-6.78-.73c.07-.04.44-.99.73-1.45,8.12-3.44,15.69-8.06,23.99-11.14Z"/>
      <path class="cls-9" d="M411.93,296.58c3.67-.9,4.04,3.07,1.94,3.88-3.31,1.27-4.86-3.16-1.94-3.88Z"/>
    </g>
  </g>
  <text id="banner-text" class="cls-1" transform="translate(102.1 750.21)"><tspan x="0" y="0">MICHEAL FE</tspan><tspan class="cls-15" x="490.82" y="0">L</tspan><tspan x="529.38" y="0">OBES</tspan></text>
</svg>